<svg xmlns="http://www.w3.org/2000/svg" width="2400" height="2060" viewBox="0 0 2400 2060" role="img" aria-labelledby="title desc">
  <title id="title">UML карта полів grant extraction та matching</title>
  <desc id="desc">Українська UML-style схема для junior developer: entities, DTOs, services, fields, extraction rules and matching relations.</desc>
  <defs>
    <marker id="arrow" markerWidth="14" markerHeight="12" refX="12" refY="6" orient="auto" markerUnits="strokeWidth">
      <path d="M2,2 L12,6 L2,10 Z" fill="#44546f"/>
    </marker>
    <marker id="openArrow" markerWidth="14" markerHeight="12" refX="12" refY="6" orient="auto" markerUnits="strokeWidth">
      <path d="M2,2 L12,6 L2,10" fill="none" stroke="#44546f" stroke-width="1.8"/>
    </marker>
    <marker id="diamond" markerWidth="16" markerHeight="12" refX="2" refY="6" orient="auto" markerUnits="strokeWidth">
      <path d="M2,6 L8,2 L14,6 L8,10 Z" fill="#ffffff" stroke="#44546f" stroke-width="1.6"/>
    </marker>
    <filter id="shadow" x="-8%" y="-8%" width="116%" height="122%">
      <feDropShadow dx="0" dy="6" stdDeviation="6" flood-color="#172b4d" flood-opacity="0.12"/>
    </filter>
    <style>
      .bg { fill: #f7f9fc; }
      .title { font-family: Arial, sans-serif; font-size: 38px; font-weight: 700; fill: #172b4d; }
      .subtitle { font-family: Arial, sans-serif; font-size: 19px; fill: #5e6c84; }
      .note { fill: #172b4d; filter: url(#shadow); }
      .noteText { font-family: Arial, sans-serif; font-size: 18px; fill: #e7eefc; }
      .uml { fill: #ffffff; stroke: #44546f; stroke-width: 2; filter: url(#shadow); }
      .umlHead { fill: #f1f5fb; stroke: #44546f; stroke-width: 2; }
      .entity { stroke: #0f766e; }
      .entityHead { fill: #dff8f3; stroke: #0f766e; }
      .dto { stroke: #2563eb; }
      .dtoHead { fill: #e6efff; stroke: #2563eb; }
      .service { stroke: #7c3aed; }
      .serviceHead { fill: #f0e8ff; stroke: #7c3aed; }
      .output { stroke: #334155; }
      .outputHead { fill: #e9eef5; stroke: #334155; }
      .external { stroke: #c2410c; }
      .externalHead { fill: #fff0e8; stroke: #c2410c; }
      .name { font-family: Arial, sans-serif; font-size: 19px; font-weight: 700; fill: #172b4d; }
      .stereo { font-family: Arial, sans-serif; font-size: 14px; fill: #5e6c84; }
      .field { font-family: "SFMono-Regular", Consolas, monospace; font-size: 13.2px; fill: #172b4d; }
      .method { font-family: "SFMono-Regular", Consolas, monospace; font-size: 13.2px; fill: #5b21b6; }
      .text { font-family: Arial, sans-serif; font-size: 14px; fill: #253858; }
      .small { font-family: Arial, sans-serif; font-size: 12.5px; fill: #5e6c84; }
      .comp { stroke: #d7dee8; stroke-width: 1.4; }
      .assoc { fill: none; stroke: #44546f; stroke-width: 2.2; marker-end: url(#openArrow); }
      .dep { fill: none; stroke: #6b778c; stroke-width: 2; stroke-dasharray: 8 6; marker-end: url(#arrow); }
      .agg { fill: none; stroke: #44546f; stroke-width: 2.2; marker-start: url(#diamond); marker-end: url(#openArrow); }
      .label { font-family: Arial, sans-serif; font-size: 13px; fill: #344563; font-weight: 700; }
      .card { fill: #ffffff; stroke: #c7d0dd; stroke-width: 1.5; filter: url(#shadow); }
    </style>
  </defs>

  <rect class="bg" width="2400" height="2060"/>
  <text x="1200" y="58" text-anchor="middle" class="title">UML-style карта: grant fields, extraction, matching</text>
  <text x="1200" y="88" text-anchor="middle" class="subtitle">Те, що реально є в implementation: entities, DTOs, services, поля, правила extraction і scoring.</text>

  <rect x="70" y="120" width="2260" height="92" rx="16" class="note"/>
  <text x="105" y="158" class="noteText">Головний pipeline: CLI запускає source connector -> connector повертає FetchedGrant -> raw snapshot зберігається для audit -> draft нормалізується у Grant -> matching порівнює Grant з ClientProfile та ApplicationHistory -> explanations/dashboard читають готові DB поля.</text>
  <text x="105" y="188" class="noteText">UML legend: «Entity» = DB table/model, «DTO» = object між connector/service, «Service» = логіка, dashed arrow = dependency/call, solid arrow = relation/data flow.</text>

  <!-- CLI / Source / Connectors -->
  <g id="IngestCommand">
    <rect x="70" y="255" width="410" height="220" class="uml external"/>
    <rect x="70" y="255" width="410" height="62" class="umlHead externalHead"/>
    <text x="275" y="280" text-anchor="middle" class="stereo">«CLI command»</text>
    <text x="275" y="306" text-anchor="middle" class="name">grant-tool ingest</text>
    <line x1="70" y1="317" x2="480" y2="317" class="comp"/>
    <text x="92" y="344" class="field">+ --source &lt;slug&gt;</text>
    <text x="92" y="366" class="field">+ --all</text>
    <text x="92" y="388" class="field">+ --limit: int = 20</text>
    <text x="92" y="410" class="field">+ HTTP_USER_AGENT</text>
    <line x1="70" y1="425" x2="480" y2="425" class="comp"/>
    <text x="92" y="452" class="method">+ run_source(source_slug, limit)</text>
  </g>

  <g id="Source">
    <rect x="540" y="255" width="560" height="300" class="uml entity"/>
    <rect x="540" y="255" width="560" height="62" class="umlHead entityHead"/>
    <text x="820" y="280" text-anchor="middle" class="stereo">«Entity»</text>
    <text x="820" y="306" text-anchor="middle" class="name">Source</text>
    <line x1="540" y1="317" x2="1100" y2="317" class="comp"/>
    <text x="562" y="344" class="field">+ id: UUID</text>
    <text x="562" y="366" class="field">+ slug, name, base_url</text>
    <text x="562" y="388" class="field">+ list_url, api_url, feed_url, sitemap_url</text>
    <text x="562" y="410" class="field">+ access_strategy: api | rss | html | sitemap_html</text>
    <text x="562" y="432" class="field">+ requires_browser, enabled</text>
    <text x="562" y="454" class="field">+ rate_limit_seconds</text>
    <text x="562" y="476" class="field">+ notes, source_metadata</text>
    <line x1="540" y1="491" x2="1100" y2="491" class="comp"/>
    <text x="562" y="518" class="method">+ seed_mvp_sources()</text>
    <text x="562" y="540" class="small">MVP slugs: eu-funding, prostir, diia-business, gurt</text>
  </g>

  <g id="ConnectorRegistry">
    <rect x="1160" y="255" width="500" height="300" class="uml dto"/>
    <rect x="1160" y="255" width="500" height="62" class="umlHead dtoHead"/>
    <text x="1410" y="280" text-anchor="middle" class="stereo">«Registry / Interface»</text>
    <text x="1410" y="306" text-anchor="middle" class="name">CONNECTOR_CLASSES / BaseConnector</text>
    <line x1="1160" y1="317" x2="1660" y2="317" class="comp"/>
    <text x="1182" y="344" class="field">+ source_slug</text>
    <text x="1182" y="366" class="field">+ source: Source</text>
    <text x="1182" y="388" class="field">+ http: HttpClient</text>
    <line x1="1160" y1="403" x2="1660" y2="403" class="comp"/>
    <text x="1182" y="430" class="method">+ run(limit) -&gt; ConnectorResult</text>
    <text x="1182" y="452" class="method">+ fetch list/detail</text>
    <text x="1182" y="474" class="method">+ parse API/RSS/HTML</text>
    <text x="1182" y="496" class="method">+ build NormalizedGrantDraft</text>
    <text x="1182" y="532" class="small">HttpClient applies user-agent, timeout, retries, rate limit.</text>
  </g>

  <g id="Connectors">
    <rect x="1720" y="255" width="610" height="300" class="uml external"/>
    <rect x="1720" y="255" width="610" height="62" class="umlHead externalHead"/>
    <text x="2025" y="280" text-anchor="middle" class="stereo">«Concrete connectors»</text>
    <text x="2025" y="306" text-anchor="middle" class="name">Source-specific fetch parameters</text>
    <line x1="1720" y1="317" x2="2330" y2="317" class="comp"/>
    <text x="1742" y="344" class="field">EUFundingConnector: POST api_url; apiKey=SEDIA;</text>
    <text x="1742" y="366" class="field">  text=***; pageSize=limit; pageNumber=1; type 1/2;</text>
    <text x="1742" y="388" class="field">  programmePeriod=2021-2027</text>
    <text x="1742" y="416" class="field">ProstirConnector: feed_url RSS -> detail HTML</text>
    <text x="1742" y="444" class="field">DiiaBusinessConnector: /finance?take=limit&amp;skip=0;</text>
    <text x="1742" y="466" class="field">  detail /finance/service/{slug}</text>
    <text x="1742" y="494" class="field">GurtConnector: list_url HTML -> detail HTML</text>
    <text x="1742" y="530" class="small">Errors are stored in ConnectorError and JobRun metadata.</text>
  </g>

  <path class="dep" d="M480 365 L540 365"/>
  <path class="dep" d="M1100 365 L1160 365"/>
  <path class="dep" d="M1660 365 L1720 365"/>
  <text x="492" y="350" class="label">uses</text>
  <text x="1115" y="350" class="label">selects</text>
  <text x="1678" y="350" class="label">implements</text>

  <!-- DTOs / Raw / Grant -->
  <g id="FetchedGrant">
    <rect x="70" y="635" width="500" height="250" class="uml dto"/>
    <rect x="70" y="635" width="500" height="62" class="umlHead dtoHead"/>
    <text x="320" y="660" text-anchor="middle" class="stereo">«DTO»</text>
    <text x="320" y="686" text-anchor="middle" class="name">FetchedGrant</text>
    <line x1="70" y1="697" x2="570" y2="697" class="comp"/>
    <text x="92" y="724" class="field">+ normalized: NormalizedGrantDraft</text>
    <text x="92" y="746" class="field">+ raw_payload: dict | list | null</text>
    <text x="92" y="768" class="field">+ raw_html: str | null</text>
    <text x="92" y="790" class="field">+ raw_text: str | null</text>
    <text x="92" y="812" class="field">+ raw_title, raw_summary</text>
    <text x="92" y="834" class="field">+ http_status, content_type</text>
    <text x="92" y="856" class="field">+ snapshot_metadata</text>
  </g>

  <g id="NormalizedGrantDraft">
    <rect x="630" y="635" width="620" height="505" class="uml dto"/>
    <rect x="630" y="635" width="620" height="62" class="umlHead dtoHead"/>
    <text x="940" y="660" text-anchor="middle" class="stereo">«DTO»</text>
    <text x="940" y="686" text-anchor="middle" class="name">NormalizedGrantDraft</text>
    <line x1="630" y1="697" x2="1250" y2="697" class="comp"/>
    <text x="652" y="724" class="field">+ source_url, source_record_id, application_url</text>
    <text x="652" y="746" class="field">+ title, summary, description_text, language</text>
    <text x="652" y="768" class="field">+ status, published_at, opens_at</text>
    <text x="652" y="790" class="field">+ deadline_at, deadline_text</text>
    <text x="652" y="812" class="field">+ program_name, funder_name</text>
    <text x="652" y="834" class="field">+ opportunity_type, support_type</text>
    <text x="652" y="856" class="field">+ funding_amount_min, funding_amount_max</text>
    <text x="652" y="878" class="field">+ funding_amount_text, currency</text>
    <text x="652" y="900" class="field">+ geography_text, countries, regions</text>
    <text x="652" y="922" class="field">+ eligibility_text, applicant_types</text>
    <text x="652" y="944" class="field">+ topics, keywords, restrictions_text</text>
    <text x="652" y="966" class="field">+ cofinancing_required, cofinancing_text</text>
    <text x="652" y="988" class="field">+ consortium_required, consortium_text</text>
    <text x="652" y="1010" class="field">+ implementation_period_text, contact_text</text>
    <text x="652" y="1032" class="field">+ documents, source_metadata</text>
    <text x="652" y="1054" class="field">+ extraction_method, extraction_confidence</text>
    <text x="652" y="1076" class="field">+ extraction_metadata</text>
    <text x="652" y="1098" class="field">+ needs_manual_review, manual_review_reason</text>
    <line x1="630" y1="1112" x2="1250" y2="1112" class="comp"/>
    <text x="652" y="1135" class="method">+ to_grant_fields() -&gt; dict</text>
  </g>

  <g id="RawGrantSnapshot">
    <rect x="1310" y="635" width="470" height="285" class="uml entity"/>
    <rect x="1310" y="635" width="470" height="62" class="umlHead entityHead"/>
    <text x="1545" y="660" text-anchor="middle" class="stereo">«Entity»</text>
    <text x="1545" y="686" text-anchor="middle" class="name">RawGrantSnapshot</text>
    <line x1="1310" y1="697" x2="1780" y2="697" class="comp"/>
    <text x="1332" y="724" class="field">+ id, source_id, source_record_id</text>
    <text x="1332" y="746" class="field">+ source_url, fetched_at</text>
    <text x="1332" y="768" class="field">+ http_status, content_type</text>
    <text x="1332" y="790" class="field">+ raw_title, raw_summary</text>
    <text x="1332" y="812" class="field">+ raw_text, raw_html, raw_payload</text>
    <text x="1332" y="834" class="field">+ content_hash</text>
    <text x="1332" y="856" class="field">+ snapshot_metadata</text>
    <line x1="1310" y1="872" x2="1780" y2="872" class="comp"/>
    <text x="1332" y="899" class="small">Unique: source_id + source_url + content_hash.</text>
  </g>

  <g id="Grant">
    <rect x="1310" y="970" width="1020" height="560" class="uml entity"/>
    <rect x="1310" y="970" width="1020" height="62" class="umlHead entityHead"/>
    <text x="1820" y="995" text-anchor="middle" class="stereo">«Entity»</text>
    <text x="1820" y="1021" text-anchor="middle" class="name">Grant</text>
    <line x1="1310" y1="1032" x2="2330" y2="1032" class="comp"/>
    <text x="1332" y="1059" class="field">identity: id, source_id, latest_raw_snapshot_id, source_record_id, source_url, application_url</text>
    <text x="1332" y="1081" class="field">content: title, summary, description_text, language</text>
    <text x="1332" y="1103" class="field">dates/status: status, published_at, opens_at, deadline_at, deadline_text</text>
    <text x="1332" y="1125" class="field">program: program_name, funder_name, opportunity_type, support_type</text>
    <text x="1332" y="1147" class="field">funding: funding_amount_min, funding_amount_max, funding_amount_text, currency</text>
    <text x="1332" y="1169" class="field">geo: geography_text, countries, regions</text>
    <text x="1332" y="1191" class="field">taxonomy: eligibility_text, applicant_types, topics, keywords</text>
    <text x="1332" y="1213" class="field">requirements: restrictions_text, cofinancing_required, cofinancing_text</text>
    <text x="1332" y="1235" class="field">requirements: consortium_required, consortium_text, implementation_period_text</text>
    <text x="1332" y="1257" class="field">details: contact_text, documents, source_metadata</text>
    <text x="1332" y="1279" class="field">extraction: extraction_method, extraction_confidence, extraction_metadata</text>
    <text x="1332" y="1301" class="field">review: needs_manual_review, manual_review_reason</text>
    <text x="1332" y="1323" class="field">embedding: embedding, embedding_text, embedding_model, embedded_at</text>
    <text x="1332" y="1345" class="field">timestamps: created_at, updated_at</text>
    <line x1="1310" y1="1360" x2="2330" y2="1360" class="comp"/>
    <text x="1332" y="1387" class="small">Dedup/upsert: source_id + source_record_id, fallback source_id + source_url.</text>
    <text x="1332" y="1410" class="small">Feature card stored in extraction_metadata.feature_card: title, summary, status, deadline, program, funder, funding, countries, applicant_types, topics, manual review.</text>
    <text x="1332" y="1433" class="small">Used by matching, embeddings, explanations and dashboard.</text>
  </g>

  <path class="assoc" d="M2025 555 C2025 605 320 585 320 635"/>
  <path class="agg" d="M570 760 L630 760"/>
  <text x="585" y="744" class="label">1</text>
  <path class="dep" d="M570 840 C780 930 1090 730 1310 760"/>
  <text x="910" y="800" class="label">save raw</text>
  <path class="dep" d="M1250 910 C1360 950 1300 1060 1310 1060"/>
  <text x="1248" y="952" class="label">upsert</text>
  <path class="assoc" d="M1545 920 L1545 970"/>
  <text x="1560" y="948" class="label">latest_raw_snapshot_id</text>

  <!-- Services: ingestion/extraction -->
  <g id="IngestionService">
    <rect x="70" y="980" width="500" height="245" class="uml service"/>
    <rect x="70" y="980" width="500" height="62" class="umlHead serviceHead"/>
    <text x="320" y="1005" text-anchor="middle" class="stereo">«Service»</text>
    <text x="320" y="1031" text-anchor="middle" class="name">IngestionService</text>
    <line x1="70" y1="1042" x2="570" y2="1042" class="comp"/>
    <text x="92" y="1069" class="method">+ run_source(source_slug, limit)</text>
    <text x="92" y="1091" class="method">+ _save_fetched_grant(fetched_grant)</text>
    <line x1="70" y1="1107" x2="570" y2="1107" class="comp"/>
    <text x="92" y="1134" class="text">Creates JobRun(type=ingestion).</text>
    <text x="92" y="1157" class="text">Runs connector, stores raw snapshot, upserts grant.</text>
    <text x="92" y="1180" class="text">Marks job success/partial/failed.</text>
    <text x="92" y="1203" class="text">One failed detail page does not break all ingestion.</text>
  </g>

  <g id="FeatureExtractionService">
    <rect x="630" y="1210" width="620" height="430" class="uml service"/>
    <rect x="630" y="1210" width="620" height="62" class="umlHead serviceHead"/>
    <text x="940" y="1235" text-anchor="middle" class="stereo">«Service»</text>
    <text x="940" y="1261" text-anchor="middle" class="name">FeatureExtractionService</text>
    <line x1="630" y1="1272" x2="1250" y2="1272" class="comp"/>
    <text x="652" y="1299" class="method">+ enrich_fetched_grant(fetched_grant)</text>
    <text x="652" y="1321" class="method">+ enrich_draft(draft, raw_text, raw_html, raw_payload)</text>
    <text x="652" y="1343" class="method">+ run_existing(source_slug, limit, use_llm)</text>
    <line x1="630" y1="1358" x2="1250" y2="1358" class="comp"/>
    <text x="652" y="1385" class="field">rules: normalize_title, normalize_status, extract_funding</text>
    <text x="652" y="1407" class="field">rules: classify_opportunity, extract_taxonomy, extract_geography</text>
    <text x="652" y="1429" class="field">rules: extract_text_features, confidence, manual_review</text>
    <text x="652" y="1451" class="field">LLM optional: summary, eligibility, restrictions, applicant_types, topics</text>
    <line x1="630" y1="1466" x2="1250" y2="1466" class="comp"/>
    <text x="652" y="1493" class="text">Topics: AI, defence, dual-use, innovation, community,</text>
    <text x="652" y="1516" class="text">business support, education, culture, humanitarian.</text>
    <text x="652" y="1539" class="text">Applicant types: SME, startup, company, NGO, consortium.</text>
    <text x="652" y="1562" class="text">Countries: Ukraine, EU, Poland, Germany, Moldova, Georgia, Belarus.</text>
    <text x="652" y="1585" class="text">Manual review: generic title, very short text, no topics/applicant types.</text>
  </g>

  <path class="dep" d="M570 1090 L630 1090"/>
  <path class="dep" d="M940 1140 L940 1210"/>
  <text x="585" y="1075" class="label">calls</text>
  <text x="955" y="1178" class="label">enriches</text>

  <!-- Client/history/matching -->
  <g id="ClientProfile">
    <rect x="70" y="1320" width="500" height="300" class="uml entity"/>
    <rect x="70" y="1320" width="500" height="62" class="umlHead entityHead"/>
    <text x="320" y="1345" text-anchor="middle" class="stereo">«Entity»</text>
    <text x="320" y="1371" text-anchor="middle" class="name">ClientProfile</text>
    <line x1="70" y1="1382" x2="570" y2="1382" class="comp"/>
    <text x="92" y="1409" class="field">+ id, name, slug</text>
    <text x="92" y="1431" class="field">+ country, sector, organization_type</text>
    <text x="92" y="1453" class="field">+ technologies, product_description, risks</text>
    <text x="92" y="1475" class="field">+ target_topics, excluded_topics</text>
    <text x="92" y="1497" class="field">+ previous_submissions_summary</text>
    <text x="92" y="1519" class="field">+ source_type, source_uri, profile_metadata</text>
    <text x="92" y="1541" class="field">+ enabled</text>
    <text x="92" y="1563" class="field">+ embedding, embedding_text, embedding_model, embedded_at</text>
    <line x1="70" y1="1578" x2="570" y2="1578" class="comp"/>
    <text x="92" y="1605" class="small">CSV import: data/manual_seed/client_profiles.manual.csv</text>
  </g>

  <g id="ApplicationHistory">
    <rect x="70" y="1675" width="500" height="295" class="uml entity"/>
    <rect x="70" y="1675" width="500" height="62" class="umlHead entityHead"/>
    <text x="320" y="1700" text-anchor="middle" class="stereo">«Entity»</text>
    <text x="320" y="1726" text-anchor="middle" class="name">ApplicationHistory</text>
    <line x1="70" y1="1737" x2="570" y2="1737" class="comp"/>
    <text x="92" y="1764" class="field">+ id, client_profile_id, grant_id</text>
    <text x="92" y="1786" class="field">+ client_name, grant_title, grant_source</text>
    <text x="92" y="1808" class="field">+ program_name, application_date, result</text>
    <text x="92" y="1830" class="field">+ country, applicant_type, topics</text>
    <text x="92" y="1852" class="field">+ project_summary, reusable_materials</text>
    <text x="92" y="1874" class="field">+ similarity_weight, notes, history_metadata</text>
    <text x="92" y="1896" class="field">+ embedding, embedding_text, embedding_model, embedded_at</text>
    <line x1="70" y1="1911" x2="570" y2="1911" class="comp"/>
    <text x="92" y="1938" class="small">Result won/lost/rejected/not_submitted is context, not penalty.</text>
  </g>

  <g id="EmbeddingService">
    <rect x="630" y="1695" width="620" height="275" class="uml service"/>
    <rect x="630" y="1695" width="620" height="62" class="umlHead serviceHead"/>
    <text x="940" y="1720" text-anchor="middle" class="stereo">«Service»</text>
    <text x="940" y="1746" text-anchor="middle" class="name">EmbeddingService</text>
    <line x1="630" y1="1757" x2="1250" y2="1757" class="comp"/>
    <text x="652" y="1784" class="method">+ run(target=grants|clients|history|all, provider)</text>
    <text x="652" y="1806" class="method">+ grant_profile_text(grant)</text>
    <text x="652" y="1828" class="method">+ client_profile_text(client)</text>
    <text x="652" y="1850" class="method">+ history_profile_text(history)</text>
    <text x="652" y="1872" class="method">+ cosine_similarity(left, right)</text>
    <line x1="630" y1="1887" x2="1250" y2="1887" class="comp"/>
    <text x="652" y="1914" class="text">Providers: hash for local deterministic smoke, OpenAI for semantic quality.</text>
    <text x="652" y="1937" class="text">Writes embedding fields on Grant, ClientProfile, ApplicationHistory.</text>
  </g>

  <g id="ShortlistMatchingService">
    <rect x="1310" y="1580" width="500" height="390" class="uml service"/>
    <rect x="1310" y="1580" width="500" height="62" class="umlHead serviceHead"/>
    <text x="1560" y="1605" text-anchor="middle" class="stereo">«Service»</text>
    <text x="1560" y="1631" text-anchor="middle" class="name">ShortlistMatchingService</text>
    <line x1="1310" y1="1642" x2="1810" y2="1642" class="comp"/>
    <text x="1332" y="1669" class="method">+ run(client_slug, grant_limit, top_n, min_score, use_vector)</text>
    <text x="1332" y="1691" class="method">+ score(grant, client, history, use_vector)</text>
    <line x1="1310" y1="1706" x2="1810" y2="1706" class="comp"/>
    <text x="1332" y="1733" class="field">hard filters: status, deadline_at, countries</text>
    <text x="1332" y="1755" class="field">hard filters: applicant_types, restrictions_text</text>
    <text x="1332" y="1777" class="field">hard filters: opportunity_type, support_type</text>
    <text x="1332" y="1799" class="field">keyword score: topics, technologies, applicant fit, sector</text>
    <text x="1332" y="1821" class="field">history score: topic overlap, text hits, reusable_materials</text>
    <text x="1332" y="1843" class="field">vector score: grant/client/history embeddings</text>
    <line x1="1310" y1="1858" x2="1810" y2="1858" class="comp"/>
    <text x="1332" y="1885" class="text">Stage 6 score = keyword*0.75 + history*0.25</text>
    <text x="1332" y="1908" class="text">+ extraction confidence bonus - manual/exclusion penalties.</text>
    <text x="1332" y="1931" class="text">Vector run uses max(stage6_fallback, vector_blended).</text>
  </g>

  <g id="MatchRun">
    <rect x="1860" y="1580" width="470" height="180" class="uml entity"/>
    <rect x="1860" y="1580" width="470" height="62" class="umlHead entityHead"/>
    <text x="2095" y="1605" text-anchor="middle" class="stereo">«Entity»</text>
    <text x="2095" y="1631" text-anchor="middle" class="name">MatchRun</text>
    <line x1="1860" y1="1642" x2="2330" y2="1642" class="comp"/>
    <text x="1882" y="1669" class="field">+ id, name, run_type, status</text>
    <text x="1882" y="1691" class="field">+ parameters, started_at, completed_at</text>
    <text x="1882" y="1713" class="field">+ notes, created_at, updated_at</text>
  </g>

  <g id="GrantClientMatch">
    <rect x="1860" y="1805" width="470" height="165" class="uml entity"/>
    <rect x="1860" y="1805" width="470" height="62" class="umlHead entityHead"/>
    <text x="2095" y="1830" text-anchor="middle" class="stereo">«Entity»</text>
    <text x="2095" y="1856" text-anchor="middle" class="name">GrantClientMatch</text>
    <line x1="1860" y1="1867" x2="2330" y2="1867" class="comp"/>
    <text x="1882" y="1894" class="field">+ match_run_id, grant_id, client_profile_id</text>
    <text x="1882" y="1916" class="field">+ score, rank, hard_filter_passed, filter_reasons</text>
    <text x="1882" y="1938" class="field">+ keyword_score, vector_score, history_score, llm_score</text>
    <text x="1882" y="1960" class="field">+ explanation, risks_text, manual_checks, evidence, match_metadata</text>
  </g>

  <path class="assoc" d="M570 1470 C880 1470 1020 1680 1310 1735"/>
  <path class="assoc" d="M570 1820 C900 1820 1050 1780 1310 1790"/>
  <path class="assoc" d="M1810 1740 L1860 1678"/>
  <path class="assoc" d="M1810 1850 L1860 1888"/>
  <path class="assoc" d="M1810 1640 C1900 1510 1820 1450 1740 1530"/>
  <text x="1830" y="1660" class="label">creates 1</text>
  <text x="1822" y="1878" class="label">saves 0..*</text>
  <path class="assoc" d="M2095 1760 L2095 1805"/>
  <text x="2110" y="1788" class="label">1 -> many</text>

  <!-- Explanations / Dashboard -->
  <g id="ExplanationService">
    <rect x="1310" y="210" width="500" height="0" opacity="0"/>
  </g>

  <g id="MatchExplanationService">
    <rect x="1310" y="90" width="500" height="0" opacity="0"/>
  </g>

  <g id="ExplanationDashboard">
    <rect x="1310" y="60" width="0" height="0" opacity="0"/>
  </g>

  <rect x="70" y="1998" width="2260" height="2" fill="#d7dee8"/>
  <text x="1200" y="2028" text-anchor="middle" class="small">DashboardService читає Source, JobRun, Grant, ClientProfile, GrantClientMatch, Report. MatchExplanationService читає saved matches і пише explanation, risks_text, manual_checks, llm_score, match_metadata.llm_explanation.</text>

  <!-- Additional top-right concise class for explanation/dashboard usage -->
  <g id="ReadOnlyAndExplanation">
    <rect x="1860" y="635" width="470" height="285" class="uml output"/>
    <rect x="1860" y="635" width="470" height="62" class="umlHead outputHead"/>
    <text x="2095" y="660" text-anchor="middle" class="stereo">«Services»</text>
    <text x="2095" y="686" text-anchor="middle" class="name">Explanations / Dashboard</text>
    <line x1="1860" y1="697" x2="2330" y2="697" class="comp"/>
    <text x="1882" y="724" class="method">MatchExplanationService.run(match_run_id, limit)</text>
    <text x="1882" y="746" class="field">input: saved match, grant profile, client profile</text>
    <text x="1882" y="768" class="field">input: application history, score_breakdown, evidence</text>
    <text x="1882" y="790" class="field">output: explanation, risks_text, manual_checks</text>
    <text x="1882" y="812" class="field">output: llm_score, match_metadata.llm_explanation</text>
    <line x1="1860" y1="828" x2="2330" y2="828" class="comp"/>
    <text x="1882" y="855" class="method">DashboardService: read-only queries</text>
    <text x="1882" y="877" class="field">pages: /, /grants, /clients, /matches, /report</text>
    <text x="1882" y="899" class="field">filters: source, status, topic, q, manual_review, min_score</text>
  </g>

  <path class="dep" d="M2095 1805 C2200 1500 2260 1120 2200 920"/>
  <text x="2210" y="1350" class="label">explain/read</text>
  <path class="dep" d="M1810 1930 C1840 1990 2000 1980 2095 1970"/>

  <!-- Multiplicity / key notes -->
  <rect x="70" y="560" width="2260" height="38" rx="8" class="card"/>
  <text x="100" y="584" class="text">Key relations: Source 1 -> many RawGrantSnapshot; Source 1 -> many Grant; Grant 1 -> many GrantClientMatch; ClientProfile 1 -> many ApplicationHistory; MatchRun 1 -> many GrantClientMatch.</text>
</svg>
